<svg id="github-logo_icon-icons.com_73546" xmlns="http://www.w3.org/2000/svg" width="31.48" height="30.71" viewBox="0 0 31.48 30.71">
  <path id="Path_10" data-name="Path 10" d="M29.368,13.2A15.671,15.671,0,0,0,23.64,7.476a15.4,15.4,0,0,0-7.9-2.111,15.4,15.4,0,0,0-7.9,2.111A15.67,15.67,0,0,0,2.111,13.2,15.4,15.4,0,0,0,0,21.1a15.3,15.3,0,0,0,3,9.253,15.416,15.416,0,0,0,7.757,5.687.917.917,0,0,0,.82-.143.8.8,0,0,0,.266-.615q0-.061-.01-1.107t-.01-1.824l-.471.082a6.013,6.013,0,0,1-1.137.072,8.665,8.665,0,0,1-1.424-.143,3.183,3.183,0,0,1-1.373-.614,2.6,2.6,0,0,1-.9-1.26l-.2-.472a5.121,5.121,0,0,0-.645-1.045,2.473,2.473,0,0,0-.891-.779l-.143-.1a1.5,1.5,0,0,1-.266-.246,1.124,1.124,0,0,1-.184-.287q-.062-.144.1-.236a1.329,1.329,0,0,1,.594-.092l.41.061a2.992,2.992,0,0,1,1.014.492A3.308,3.308,0,0,1,7.3,28.851a3.613,3.613,0,0,0,1.137,1.281,2.413,2.413,0,0,0,1.342.44,5.828,5.828,0,0,0,1.168-.1,4.076,4.076,0,0,0,.922-.308,3.321,3.321,0,0,1,1-2.111,14.033,14.033,0,0,1-2.1-.369,8.364,8.364,0,0,1-1.926-.8,5.517,5.517,0,0,1-1.65-1.373,6.6,6.6,0,0,1-1.076-2.152,10.233,10.233,0,0,1-.42-3.074,5.978,5.978,0,0,1,1.619-4.222,5.509,5.509,0,0,1,.143-4.181,2.872,2.872,0,0,1,1.763.277,12.323,12.323,0,0,1,1.711.789q.543.327.871.553a14.8,14.8,0,0,1,7.87,0l.779-.492a11.029,11.029,0,0,1,1.885-.9A2.686,2.686,0,0,1,24,11.882a5.456,5.456,0,0,1,.164,4.181,5.979,5.979,0,0,1,1.619,4.222,10.347,10.347,0,0,1-.42,3.084,6.342,6.342,0,0,1-1.086,2.152,5.729,5.729,0,0,1-1.66,1.363,8.38,8.38,0,0,1-1.927.8,14.019,14.019,0,0,1-2.1.369,3.65,3.65,0,0,1,1.065,2.91v4.324a.816.816,0,0,0,.256.615.89.89,0,0,0,.809.143,15.413,15.413,0,0,0,7.757-5.687,15.3,15.3,0,0,0,3-9.253A15.409,15.409,0,0,0,29.368,13.2Z" transform="translate(0 -5.365)" fill="#fff"/>
</svg>
