<svg id="linkedin-112" xmlns="http://www.w3.org/2000/svg" width="27.333" height="27.285" viewBox="0 0 27.333 27.285">
  <path id="Path_1" data-name="Path 1" d="M.449,9.284H6.116V27.51H.449ZM3.283.225A3.285,3.285,0,1,1,0,3.511,3.286,3.286,0,0,1,3.283.225" transform="translate(0 -0.225)" fill="#fff"/>
  <path id="Path_2" data-name="Path 2" d="M89.456,80.323H94.89v2.492h.077a5.951,5.951,0,0,1,5.359-2.944c5.736,0,6.795,3.774,6.795,8.681v10h-5.662V89.685c0-2.114-.037-4.833-2.944-4.833-2.948,0-3.4,2.3-3.4,4.681v9.015H89.456Z" transform="translate(-79.788 -71.263)" fill="#fff"/>
</svg>
