<svg id="whatsapp-121" xmlns="http://www.w3.org/2000/svg" width="27.333" height="27.465" viewBox="0 0 27.333 27.465">
  <path id="Path_9" data-name="Path 9" d="M23.955,3.991A13.613,13.613,0,0,0,2.535,20.413L.6,27.465l7.215-1.893a13.6,13.6,0,0,0,6.5,1.656h.005A13.616,13.616,0,0,0,23.955,3.991ZM8.8,14.1a6.615,6.615,0,0,1-1.389-3.518A3.814,3.814,0,0,1,8.6,7.749a1.25,1.25,0,0,1,.907-.425c.227,0,.454,0,.652.012s.489-.079.765.584c.284.681.963,2.355,1.049,2.525a.626.626,0,0,1,.028.6,2.322,2.322,0,0,1-.34.567c-.17.2-.357.443-.51.6-.17.17-.348.354-.149.694A10.244,10.244,0,0,0,12.9,15.253a9.286,9.286,0,0,0,2.735,1.688c.34.17.538.142.737-.085s.85-.993,1.077-1.333.453-.284.765-.17,1.984.936,2.324,1.106.567.255.652.4a2.84,2.84,0,0,1-.2,1.617,3.5,3.5,0,0,1-2.3,1.617,4.658,4.658,0,0,1-2.142-.135,19.527,19.527,0,0,1-1.939-.716A15.163,15.163,0,0,1,8.8,14.1Z" transform="translate(-0.604)" fill="#fff" fill-rule="evenodd"/>
</svg>
